<svg id="Layer_1" data-name="Layer 1" xmlns="http://www.w3.org/2000/svg" viewBox="0 0 135.97886 111.362"><defs><style>.cls-1{fill:#22ad5f;}.cls-2{fill:#fff;}</style></defs><title>sub-project-brand-logos-FINAL-with-wordmark</title><rect class="cls-1" width="135.97886" height="111.362" rx="14.39243"/><path class="cls-2" d="M108.734,68.40666c-.31959-.70715-.62976-1.41735-.95818-2.12167A192.12367,192.12367,0,0,0,87.66084,32.59744q-2.86843-3.84771-5.93119-7.55V74.33785h29.575Q110.07441,71.35528,108.734,68.40666Zm-21.07312,0V42.829a186.742,186.742,0,0,1,14.55423,25.57769Z"/><path class="cls-2" d="M70.04392,14.80415A192.53573,192.53573,0,0,0,41.96357,68.40666c-.6645,1.96876-1.30338,3.94462-1.90258,5.93119H75.97512V7.25412Q72.91337,10.95651,70.04392,14.80415Zm0,53.60251H48.22507a187.12611,187.12611,0,0,1,21.81885-43.371Z"/><path class="cls-2" d="M30.85013,74.33785h6.16628A186.918,186.918,0,0,1,68.31,12.10434L60.8196,16.65309c-1.82193,1.10623-3.634,2.25062-5.42293,3.41521A193.18859,193.18859,0,0,0,30.85013,74.33785Z"/><path class="cls-2" d="M21.74541,74.33785h6.12516A186.4801,186.4801,0,0,1,39.34147,42.4755q3.98814-8.55262,8.77147-16.59091-6.05757,4.39768-11.79853,9.2389Q35.11151,37.528,33.966,39.96893A192.29628,192.29628,0,0,0,21.74541,74.33785Z"/><path class="cls-2" d="M111.5533,86.70839v7.12988l-62.09479.13148-4.46034-7.1406,66.55513-.12076m5.93119-5.94206-83.17239.151L46.17449,99.9079l71.31-.151V80.76633Z"/><path class="cls-2" d="M43.10887,99.9079,31.24652,80.91736H24.25323L36.11561,99.9079Z"/><path class="cls-2" d="M33.15,99.9079,21.28768,80.91736h-6.9933L26.15677,99.9079Z"/></svg>